# Blender v2.79 (sub 0) OBJ File: 'Steak.blend'
# www.blender.org
mtllib Steak.mtl
o Steak_Cube.012
v 0.852410 0.136775 -0.297177
v -0.153681 0.136775 -0.304665
v 0.852410 -0.136775 -0.297177
v -0.153681 -0.136775 -0.304665
v -0.140221 -0.136775 -0.004674
v -0.140221 0.136775 -0.004674
v 0.842347 -0.136775 0.030189
v 0.842347 0.136775 0.030189
v -0.038802 -0.097228 -0.955114
v -0.214031 -0.136775 -0.711190
v -0.038802 0.097228 -0.955114
v -0.214031 0.136775 -0.711190
v 0.464450 -0.097228 -0.954552
v 0.790985 -0.136775 -0.625055
v 0.790985 0.136775 -0.625055
v 0.464450 0.097228 -0.954552
v -0.266782 -0.095875 0.650622
v -0.297113 -0.136775 0.346123
v -0.266782 0.095875 0.650622
v -0.297113 0.136775 0.346123
v 0.055334 -0.095875 0.801886
v 0.325512 -0.136775 0.738982
v 0.055334 0.095875 0.801886
v 0.325512 0.136775 0.738982
v -0.236795 -0.136775 0.210309
v -0.236795 0.136775 0.210309
v 0.626206 -0.136775 0.348206
v 0.626206 0.136775 0.348206
v 0.781203 0.143247 -0.111431
v 0.784766 0.143247 -0.135021
v 0.784766 -0.143247 -0.135021
v 0.781203 -0.143247 -0.111431
v 0.719946 0.151192 -0.121074
v 0.729348 0.151192 -0.143001
v 0.719946 -0.151192 -0.121074
v 0.729348 -0.151192 -0.143001
v 0.673349 0.152485 -0.194151
v 0.674249 0.152485 -0.212401
v 0.673349 -0.152485 -0.194151
v 0.674249 -0.152485 -0.212401
v 0.605913 0.144918 -0.195618
v 0.605913 -0.144918 -0.195618
v -0.151118 -0.152485 0.209062
v -0.151118 0.152485 0.209062
v -0.184384 -0.152485 0.271067
v -0.197342 -0.152485 0.258185
v -0.184384 0.152485 0.271067
v -0.197342 0.152485 0.258185
v -0.272826 -0.138347 0.265559
v -0.282825 -0.138347 0.243897
v -0.272826 0.138347 0.265559
v -0.282825 0.138347 0.243897
v -0.330988 -0.131077 0.282957
v -0.315845 -0.131077 0.301394
v -0.315845 0.131077 0.301394
v -0.330988 0.131077 0.282957
v 0.380374 -0.152350 -0.287930
v 0.380374 0.152350 -0.287930
v 0.270881 -0.152350 -0.301513
v 0.270881 0.152350 -0.301513
v 0.226348 -0.152350 -0.420218
v 0.226348 0.152350 -0.420218
v 0.180208 -0.152350 -0.543882
v 0.180208 0.152350 -0.543882
v 0.456533 0.152350 -0.539034
v 0.456533 -0.152350 -0.539034
v 0.453086 -0.152350 -0.407731
v 0.453086 0.152350 -0.407731
v 0.643057 0.152350 -0.524723
v 0.674867 0.147262 -0.492691
v 0.674867 -0.147262 -0.492691
v 0.643057 -0.152350 -0.524723
v 0.676828 -0.147262 -0.449381
v 0.647750 -0.152350 -0.421089
v 0.647750 0.152350 -0.421089
v 0.676828 0.147262 -0.449381
v 0.037111 -0.152350 -0.430550
v 0.011539 -0.148405 -0.457803
v 0.037111 0.152350 -0.430550
v 0.011539 0.148405 -0.457803
v 0.014646 -0.148405 -0.507113
v 0.036307 -0.152350 -0.526844
v 0.036307 0.152350 -0.526844
v 0.014646 0.148405 -0.507113
v 0.339496 -0.152350 -0.088712
v 0.101615 -0.152350 0.308686
v 0.047486 -0.149308 0.379784
v 0.277352 -0.152350 -0.101722
v 0.339496 0.152350 -0.088712
v 0.063482 -0.149308 0.397485
v 0.138119 -0.152350 0.349726
v 0.277352 0.152350 -0.101722
v 0.284220 -0.152350 0.119522
v 0.177071 0.123230 0.784146
v 0.200805 0.123230 0.781717
v 0.233251 -0.152350 0.081663
v 0.284220 0.152350 0.119522
v 0.200805 -0.123230 0.781717
v 0.177071 -0.123230 0.784146
v 0.233251 0.152350 0.081663
v 0.138119 0.152350 0.349726
v 0.063482 0.149308 0.397485
v 0.047486 0.149308 0.379784
v 0.101615 0.152350 0.308686
v 0.171143 0.130065 0.722419
v 0.194721 0.130065 0.726059
v 0.171143 -0.130065 0.722419
v 0.194721 -0.130065 0.726059
v 0.230300 0.143357 0.659079
v 0.248198 0.143357 0.655401
v 0.230300 -0.143357 0.659079
v 0.248198 -0.143357 0.655401
v 0.214914 0.143357 0.593406
v -0.153681 -0.169835 -0.304665
v 0.214914 -0.143357 0.593406
v -0.140221 -0.169835 -0.004674
v -0.140221 0.169835 -0.004674
v -0.153681 0.169835 -0.304665
v -0.393262 -0.106924 0.707675
v -0.266782 -0.119049 0.650622
v -0.084330 0.108432 -1.032997
v -0.038802 0.120729 -0.955114
v 0.842347 0.169835 0.030189
v 0.852410 0.169835 -0.297177
v 0.790985 -0.169835 -0.625055
v 0.852410 -0.169835 -0.297177
v 0.019148 -0.106924 0.879663
v 0.055334 -0.119049 0.801886
v 0.325512 -0.169835 0.738982
v 0.327545 -0.152537 0.813942
v -0.214031 0.169835 -0.711190
v 0.925450 -0.152537 -0.322138
v -0.038802 -0.120729 -0.955114
v -0.214031 -0.169835 -0.711190
v 0.858734 -0.152537 -0.679673
v 0.464450 -0.120729 -0.954552
v 0.790985 0.169835 -0.625055
v 0.464450 0.120729 -0.954552
v 0.669203 0.152537 0.389006
v 0.626206 0.169835 0.348206
v 0.325512 0.169835 0.738982
v 0.327545 0.152537 0.813942
v 0.842347 -0.169835 0.030189
v -0.297113 -0.169835 0.346123
v 0.496707 0.108432 -1.032979
v -0.266782 0.119049 0.650622
v -0.297113 0.169835 0.346123
v 0.858734 0.152537 -0.679673
v 0.055334 0.119049 0.801886
v 0.925450 0.152537 -0.322138
v 0.913876 0.152537 0.039042
v -0.236795 -0.169835 0.210309
v -0.236795 0.169835 0.210309
v 0.626206 -0.169835 0.348206
v 0.669203 -0.152537 0.389006
v 0.913876 -0.152537 0.039042
v -0.204493 -0.152537 -0.000846
v -0.210269 -0.152537 -0.329397
v -0.204493 0.152537 -0.000846
v -0.210269 0.152537 -0.329397
v -0.320216 0.152537 -0.764830
v -0.084330 -0.108432 -1.032997
v -0.320216 -0.152537 -0.764830
v 0.496707 -0.108432 -1.032979
v -0.394466 -0.152537 0.347617
v -0.393262 0.106924 0.707675
v -0.394467 0.152537 0.347617
v 0.019148 0.106924 0.879663
v -0.314604 -0.152537 0.186359
v -0.314604 0.152537 0.186359
v 0.862421 0.143247 -0.130295
v 0.856985 0.143247 -0.153525
v 0.856985 -0.143247 -0.153525
v 0.862421 -0.143247 -0.130295
v -0.174935 0.143247 -0.400519
v -0.153733 0.143247 -0.389579
v -0.153733 -0.143247 -0.389579
v -0.174935 -0.143247 -0.400519
v -0.146158 0.151192 -0.455449
v -0.128404 0.151192 -0.439512
v -0.146158 -0.151192 -0.455449
v -0.128404 -0.151192 -0.439512
v -0.061998 0.152485 -0.476152
v -0.045001 0.152485 -0.469449
v -0.061998 -0.152485 -0.476152
v -0.045001 -0.152485 -0.469449
v -0.038984 0.144918 -0.539557
v -0.038984 -0.144918 -0.539557
v -0.183110 0.143247 -0.317540
v -0.159363 0.143247 -0.315240
v -0.159363 -0.143247 -0.315240
v -0.183110 -0.143247 -0.317540
v 0.030013 0.110047 -0.962367
v 0.014707 0.110047 -0.944066
v 0.014707 -0.110047 -0.944066
v 0.030013 -0.110047 -0.962367
v 0.077332 0.116151 -0.922289
v 0.057902 0.116151 -0.908444
v 0.077332 -0.116151 -0.922289
v 0.057902 -0.116151 -0.908444
v 0.079154 0.134126 -0.835639
v 0.068900 0.134126 -0.820516
v 0.079154 -0.134126 -0.835639
v 0.068900 -0.134126 -0.820516
v 0.136002 0.127470 -0.799333
v 0.136002 -0.127470 -0.799333
v -0.049177 0.110047 -0.988469
v -0.056608 0.110047 -0.965797
v -0.056608 -0.110047 -0.965797
v -0.049177 -0.110047 -0.988469
v 0.094618 0.144315 -0.149700
v 0.070007 0.144315 -0.143404
v 0.094618 -0.144315 -0.149700
v 0.070007 -0.144315 -0.143404
v 0.040998 0.147762 -0.017766
v 0.023039 0.147762 -0.002666
v 0.040998 -0.147762 -0.017766
v 0.023039 -0.147762 -0.002666
v 0.064157 0.140430 0.079558
v 0.064157 -0.140430 0.079558
v 0.069076 0.144315 -0.264696
v 0.069076 -0.144315 -0.264696
vn 0.0000 1.0000 0.0000
vn 0.0000 -1.0000 0.0000
vn 0.0080 -0.9903 -0.1387
vn 0.0080 0.9903 -0.1387
vn -0.0916 -0.9830 0.1591
vn -0.0916 0.9830 0.1591
vn 0.9990 0.0000 -0.0448
vn 0.9951 -0.0000 -0.0991
vn -0.1721 0.9784 0.1144
vn -0.9829 0.0000 0.1841
vn 0.0187 -0.9998 0.0048
vn 0.9892 -0.0000 -0.1468
vn 0.2262 0.0000 0.9741
vn 0.8812 0.0000 0.4728
vn -0.9995 0.0000 -0.0307
vn -0.2385 0.0000 -0.9711
vn -0.0011 -0.0000 1.0000
vn -0.7925 0.0000 -0.6098
vn -0.9998 0.0000 0.0176
vn -0.6299 0.0000 -0.7767
vn -0.1114 -0.9938 -0.0055
vn 0.9995 0.0000 0.0320
vn -0.3849 0.0000 0.9230
vn -0.7509 0.0000 -0.6605
vn -0.1114 0.9938 -0.0055
vn 0.6984 0.0000 -0.7157
vn -1.0000 -0.0000 0.0033
vn 0.2084 0.0000 0.9780
vn -0.1721 -0.9784 0.1144
vn -0.0217 0.0000 0.9998
vn 0.6400 0.0000 0.7683
vn -0.8620 0.0000 -0.5070
vn 0.0187 0.9998 0.0048
vn -0.7103 -0.0000 0.7039
vn -0.8271 0.0000 -0.5621
vn 0.9830 0.0000 -0.1834
vn 0.9139 0.0000 0.4059
vn -0.9696 0.0000 0.2448
vn 0.9122 -0.0000 0.4098
vn 0.1425 0.0000 -0.9898
vn -0.1555 0.0000 0.9878
vn -0.0545 0.0000 0.9985
vn -0.9980 0.0000 -0.0629
vn -0.1176 0.0000 -0.9931
vn 0.0175 0.0000 -0.9998
vn 0.9990 0.0000 -0.0452
vn 0.0685 0.0000 0.9977
vn 0.7096 0.0000 -0.7046
vn 0.1653 -0.9862 -0.0075
vn 0.1653 0.9862 -0.0075
vn 0.6974 0.0000 0.7167
vn 0.0765 0.0000 -0.9971
vn -0.1644 -0.9864 -0.0026
vn -0.7293 0.0000 0.6842
vn -0.1644 0.9864 -0.0026
vn -0.6734 0.0000 -0.7393
vn 0.8549 0.0000 0.5189
vn -0.9363 0.0000 0.3512
vn 0.9796 0.0000 0.2010
vn -0.7419 0.0000 0.6705
vn -0.9995 0.0000 0.0324
vn 0.9665 0.0000 0.2566
vn -0.9723 0.0000 -0.2338
vn 0.1018 0.0000 0.9948
vn 0.8443 0.0000 0.5359
vn -0.8651 0.0000 -0.5016
vn -0.0259 -0.9994 0.0231
vn 0.5390 0.0000 0.8423
vn -0.7957 0.0000 -0.6058
vn -0.0259 0.9994 0.0231
vn 0.0002 -0.9809 0.1947
vn -0.9954 0.0000 0.0956
vn -0.0030 -0.9932 0.1160
vn 0.9941 0.0000 -0.1087
vn -0.0030 0.9932 0.1160
vn -0.9736 0.0000 0.2281
vn -0.7308 0.0000 -0.6826
vn 0.7974 0.0000 0.6035
vn 0.0002 0.9809 0.1947
vn -0.1824 -0.9794 -0.0861
vn -0.2290 0.9723 0.0463
vn 0.8811 0.0000 -0.4730
vn -0.0513 0.9919 0.1165
vn -0.0215 0.9804 -0.1958
vn 0.2335 -0.9723 0.0073
vn -0.2290 -0.9723 0.0463
vn -0.0513 -0.9919 0.1165
vn 0.0001 0.9878 -0.1554
vn -0.1275 -0.9788 0.1601
vn 0.2168 -0.9754 -0.0405
vn 0.2417 0.9515 0.1903
vn 0.0479 0.9821 -0.1824
vn 0.2335 0.9723 0.0073
vn 0.2238 -0.9623 0.1544
vn 0.2168 0.9754 -0.0405
vn -0.0215 -0.9804 -0.1958
vn -0.2199 0.9689 -0.1130
vn -0.0910 -0.9849 0.1472
vn 0.2417 -0.9515 0.1903
vn -0.2765 -0.9610 0.0085
vn 0.0479 -0.9821 -0.1824
vn 0.2238 0.9623 0.1544
vn -0.2765 0.9610 0.0085
vn -0.0910 0.9849 0.1472
vn -0.2199 -0.9689 -0.1130
vn 0.0001 -0.9878 -0.1554
vn -0.1824 0.9794 -0.0861
vn -0.1275 0.9788 0.1601
vn 0.9737 0.0000 -0.2278
vn -0.1045 -0.9924 0.0655
vn -0.0622 0.0000 0.9981
vn -0.2268 0.0000 -0.9740
vn 0.1649 0.0000 -0.9863
vn -0.7283 0.0000 -0.6853
vn 0.1294 0.9909 0.0369
vn -0.1045 0.9924 0.0655
vn -0.8961 -0.0000 -0.4438
vn 0.1294 -0.9909 0.0369
vn 0.8196 0.0000 0.5730
vn 0.4251 0.0000 -0.9052
vn 0.7793 0.0000 0.6266
vn -0.8432 0.0000 0.5376
vn 0.8122 -0.0000 0.5834
vn -0.7727 0.0000 0.6347
vn 0.7832 0.0000 -0.6218
vn 0.0000 0.0000 -1.0000
vn -0.2482 0.0000 -0.9687
vn -0.0105 -0.9998 0.0162
vn -0.9952 0.0000 -0.0981
vn 0.9963 0.0000 0.0855
vn 0.0409 -0.9938 -0.1037
vn 0.0409 0.9938 -0.1037
vn -0.9400 0.0000 -0.3412
vn -0.0105 0.9998 0.0162
vn 0.8918 0.0000 0.4524
vn -0.8858 0.0000 -0.4641
vn -0.0964 0.0000 0.9953
vn -0.0764 0.9909 0.1107
vn -0.0764 -0.9909 0.1107
vn -0.2389 0.0000 -0.9710
vn 0.3378 0.0000 0.9412
vn 0.9971 0.0000 0.0755
vn -0.1811 -0.9658 -0.1856
vn 0.3130 0.0000 -0.9497
vn -0.3010 0.0000 0.9536
vn 0.0813 -0.9952 0.0551
vn 0.0813 0.9952 0.0551
vn 0.5382 0.0000 -0.8428
vn -0.1811 0.9658 -0.1856
vn -0.6362 0.0000 0.7715
vn 0.6463 0.0000 -0.7631
vn -0.9503 0.0000 -0.3115
vn -0.0705 0.9946 -0.0761
vn -0.0705 -0.9946 -0.0761
vn 0.9998 0.0000 -0.0210
vn -0.9923 0.0000 0.1241
vn -0.2915 0.0000 0.9566
vn -0.0156 -0.9994 -0.0310
vn -0.8944 0.0000 0.4473
vn 0.0526 -0.9967 0.0626
vn 0.0526 0.9967 0.0626
vn 0.9728 0.0000 -0.2315
vn -0.0156 0.9994 -0.0310
vn 0.9264 0.0000 0.3765
vn -0.9486 0.0000 -0.3166
vn -1.0000 0.0000 0.0077
vn 0.9762 0.0000 -0.2168
usemtl DarkRed
s off
f 1//1 2//1 6//1 8//1
f 4//2 3//2 7//2 5//2
f 25//2 27//2 22//2 18//2
f 28//1 26//1 20//1 24//1
f 14//3 10//3 9//3 13//3
f 12//4 15//4 16//4 11//4
f 18//5 22//5 21//5 17//5
f 24//6 20//6 19//6 23//6
f 10//2 14//2 3//2 4//2
f 15//1 12//1 2//1 1//1
f 8//1 6//1 26//1 28//1
f 5//2 7//2 27//2 25//2
usemtl White
f 4//7 5//7 116//7 114//7
f 18//8 17//8 120//8 144//8
f 51//9 47//9 48//9 52//9
f 15//10 1//10 124//10 137//10
f 35//11 39//11 40//11 36//11
f 2//12 12//12 131//12 118//12
f 29//13 32//13 174//13 171//13
f 45//14 43//14 44//14 47//14
f 7//15 3//15 126//15 143//15
f 10//12 4//12 114//12 134//12
f 46//2 43//2 45//2
f 40//16 42//16 41//16 38//16
f 11//17 16//17 138//17 122//17
f 28//18 24//18 141//18 140//18
f 160//19 158//19 157//19 159//19
f 56//20 52//20 50//20 53//20
f 39//21 42//21 40//21
f 132//22 150//22 151//22 156//22
f 166//23 119//23 127//23 168//23
f 163//24 161//24 121//24 162//24
f 38//25 41//25 37//25
f 148//26 135//26 164//26 145//26
f 167//27 165//27 119//27 166//27
f 130//28 142//28 168//28 127//28
f 50//29 46//29 45//29 49//29
f 37//30 41//30 42//30 39//30
f 54//31 49//31 51//31 55//31
f 170//32 159//32 157//32 169//32
f 34//33 38//33 37//33 33//33
f 16//34 15//34 137//34 138//34
f 27//35 7//35 143//35 154//35
f 132//36 135//36 148//36 150//36
f 20//37 26//37 153//37 147//37
f 163//38 158//38 160//38 161//38
f 13//17 9//17 133//17 136//17
f 5//39 25//39 152//39 116//39
f 31//40 36//40 34//40 30//40
f 8//35 28//35 140//35 123//35
f 14//34 13//34 136//34 125//34
f 22//18 27//18 154//18 129//18
f 26//39 6//39 117//39 153//39
f 29//41 33//41 35//41 32//41
f 61//42 62//42 79//42 77//42
f 58//1 60//1 92//1 89//1
f 61//2 63//2 66//2 67//2
f 64//1 83//1 79//1 62//1
f 78//43 80//43 84//43 81//43
f 82//44 83//44 64//44 63//44
f 67//2 66//2 72//2 74//2
f 64//1 62//1 68//1 65//1
f 63//45 64//45 65//45 66//45
f 68//1 62//1 60//1 58//1
f 65//1 68//1 75//1 69//1
f 71//46 70//46 76//46 73//46
f 68//47 67//47 74//47 75//47
f 70//48 71//48 72//48 69//48
f 74//49 72//49 71//49 73//49
f 69//50 75//50 76//50 70//50
f 75//51 74//51 73//51 76//51
f 66//52 65//52 69//52 72//52
f 82//53 77//53 78//53 81//53
f 77//54 79//54 80//54 78//54
f 79//55 83//55 84//55 80//55
f 83//56 82//56 81//56 84//56
f 82//2 63//2 61//2 77//2
f 61//2 67//2 57//2 59//2
f 67//57 68//57 58//57 57//57
f 62//58 61//58 59//58 60//58
f 57//59 58//59 89//59 85//59
f 103//60 87//60 90//60 102//60
f 60//61 59//61 88//61 92//61
f 88//2 85//2 93//2 96//2
f 89//1 92//1 100//1 97//1
f 85//62 89//62 97//62 93//62
f 92//63 88//63 96//63 100//63
f 59//2 57//2 85//2 88//2
f 94//64 99//64 98//64 95//64
f 97//1 100//1 104//1 101//1
f 93//65 97//65 101//65 91//65
f 100//66 96//66 86//66 104//66
f 96//2 93//2 91//2 86//2
f 90//67 87//67 86//67 91//67
f 102//68 90//68 91//68 101//68
f 104//69 86//69 87//69 103//69
f 103//70 102//70 101//70 104//70
f 107//71 111//71 112//71 108//71
f 94//72 105//72 107//72 99//72
f 99//73 107//73 108//73 98//73
f 98//74 108//74 106//74 95//74
f 95//75 106//75 105//75 94//75
f 109//76 113//76 115//76 111//76
f 105//77 109//77 111//77 107//77
f 108//78 112//78 110//78 106//78
f 106//79 110//79 109//79 105//79
f 152//80 144//80 165//80 169//80
f 118//81 131//81 161//81 160//81
f 110//1 113//1 109//1
f 111//2 115//2 112//2
f 112//82 115//82 113//82 110//82
f 149//83 146//83 166//83 168//83
f 131//84 122//84 121//84 161//84
f 143//85 126//85 132//85 156//85
f 134//86 114//86 158//86 163//86
f 120//87 128//87 127//87 119//87
f 122//88 138//88 145//88 121//88
f 128//89 129//89 130//89 127//89
f 126//90 125//90 135//90 132//90
f 140//91 141//91 142//91 139//91
f 138//92 137//92 148//92 145//92
f 124//93 123//93 151//93 150//93
f 154//94 143//94 156//94 155//94
f 137//95 124//95 150//95 148//95
f 133//96 134//96 163//96 162//96
f 153//97 117//97 159//97 170//97
f 144//98 120//98 119//98 165//98
f 129//99 154//99 155//99 130//99
f 114//100 116//100 157//100 158//100
f 125//101 136//101 164//101 135//101
f 123//102 140//102 139//102 151//102
f 117//103 118//103 160//103 159//103
f 146//104 147//104 167//104 166//104
f 116//105 152//105 169//105 157//105
f 136//106 133//106 162//106 164//106
f 147//107 153//107 170//107 167//107
f 141//108 149//108 168//108 142//108
f 6//7 2//7 118//7 117//7
f 47//1 44//1 48//1
f 171//109 174//109 173//109 172//109
f 19//8 20//8 147//8 146//8
f 53//110 50//110 49//110 54//110
f 32//2 31//2 173//2 174//2
f 49//111 45//111 47//111 51//111
f 24//112 23//112 149//112 141//112
f 1//15 8//15 123//15 124//15
f 52//113 48//113 46//113 50//113
f 3//10 14//10 125//10 126//10
f 48//114 44//114 43//114 46//114
f 30//115 34//115 33//115 29//115
f 21//112 22//112 129//112 128//112
f 55//116 51//116 52//116 56//116
f 170//117 169//117 165//117 167//117
f 32//118 35//118 36//118 31//118
f 156//119 151//119 139//119 155//119
f 17//120 21//120 128//120 120//120
f 130//121 155//121 139//121 142//121
f 33//122 37//122 39//122 35//122
f 12//123 11//123 122//123 131//123
f 56//124 53//124 54//124 55//124
f 36//125 40//125 38//125 34//125
f 23//120 19//120 146//120 149//120
f 145//126 164//126 162//126 121//126
f 25//37 18//37 144//37 152//37
f 9//123 10//123 134//123 133//123
f 30//1 29//1 171//1 172//1
f 31//127 30//127 172//127 173//127
f 181//128 185//128 186//128 182//128
f 175//129 178//129 192//129 189//129
f 186//130 188//130 187//130 184//130
f 185//131 188//131 186//131
f 184//132 187//132 183//132
f 183//133 187//133 188//133 185//133
f 180//134 184//134 183//134 179//134
f 177//135 182//135 180//135 176//135
f 175//136 179//136 181//136 178//136
f 189//137 192//137 191//137 190//137
f 178//2 177//2 191//2 192//2
f 176//138 180//138 179//138 175//138
f 178//139 181//139 182//139 177//139
f 179//140 183//140 185//140 181//140
f 182//141 186//141 184//141 180//141
f 176//1 175//1 189//1 190//1
f 177//142 176//142 190//142 191//142
f 199//143 203//143 204//143 200//143
f 193//144 196//144 210//144 207//144
f 204//145 206//145 205//145 202//145
f 203//146 206//146 204//146
f 202//147 205//147 201//147
f 201//148 205//148 206//148 203//148
f 198//149 202//149 201//149 197//149
f 195//150 200//150 198//150 194//150
f 193//151 197//151 199//151 196//151
f 207//152 210//152 209//152 208//152
f 196//2 195//2 209//2 210//2
f 194//153 198//153 197//153 193//153
f 196//154 199//154 200//154 195//154
f 197//155 201//155 203//155 199//155
f 200//156 204//156 202//156 198//156
f 194//1 193//1 207//1 208//1
f 195//157 194//157 208//157 209//157
f 213//158 217//158 218//158 214//158
f 218//159 220//159 219//159 216//159
f 217//160 220//160 218//160
f 216//161 219//161 215//161
f 215//162 219//162 220//162 217//162
f 212//163 216//163 215//163 211//163
f 211//164 215//164 217//164 213//164
f 214//165 218//165 216//165 212//165
f 213//2 214//2 222//2
f 212//1 211//1 221//1
f 214//166 212//166 221//166 222//166
f 222//167 221//167 211//167 213//167
